<svg width="1280" height="720" xmlns="http://www.w3.org/2000/svg" xmlns:xlink="http://www.w3.org/1999/xlink" overflow="hidden"><g><rect x="0" y="0" width="1280" height="720" fill="#FFFFFF" fill-opacity="0"/><path d="M424 365.5C424 289.009 486.009 227 562.5 227 638.991 227 701 289.009 701 365.5 701 441.991 638.991 504 562.5 504 486.009 504 424 441.991 424 365.5ZM486.973 365.5C486.973 407.212 520.788 441.027 562.5 441.027 604.212 441.027 638.027 407.212 638.027 365.5 638.027 323.788 604.212 289.973 562.5 289.973 520.788 289.973 486.973 323.788 486.973 365.5Z" fill="#1F2B37" fill-rule="evenodd"/><path d="M723 375C723 293.262 789.262 227 871 227L871 288.05C822.979 288.05 784.05 326.979 784.05 375Z" fill="#1F2B37" fill-rule="evenodd"/><path d="M124 370C124 291.023 186.232 227 263 227 338.633 227 400.386 289.213 401.97 367.006L337.483 368.395C336.642 325.051 302.613 290.631 261.477 291.518 220.935 292.391 188.501 327.272 188.501 370Z" fill="#1F2B37" fill-rule="evenodd"/><rect x="337" y="367" width="65" height="137" fill="#1F2B37"/><rect x="124" y="367" width="65" height="137" fill="#1F2B37"/><rect x="723" y="374" width="61" height="130" fill="#1F2B37"/><path d="M971.348 227.067 1017 328.528 983.221 404 903 227 971.348 227.067Z" fill="#1F2B37" fill-rule="evenodd"/><path d="M853 288 870.678 227.129 881 227 909 288 853 288Z" fill="#1F2B37" fill-rule="evenodd"/><path d="M1153 227.067 1028.21 504 994 428.504 1084.45 227 1153 227.067Z" fill="#1F2B37" fill-rule="evenodd"/></g></svg>